name kv06_filtered_grf.mot
datacolumns 37
datarows 15
range 1.553500 1.560500
endheader
time	1_ground_force_vx	1_ground_force_vy	1_ground_force_vz	1_ground_force_px	1_ground_force_py	1_ground_force_pz	1_ground_torque_x	1_ground_torque_y	1_ground_torque_z	2_ground_force_vx	2_ground_force_vy	2_ground_force_vz	2_ground_force_px	2_ground_force_py	2_ground_force_pz	2_ground_torque_x	2_ground_torque_y	2_ground_torque_z	3_ground_force_vx	3_ground_force_vy	3_ground_force_vz	3_ground_force_px	3_ground_force_py	3_ground_force_pz	3_ground_torque_x	3_ground_torque_y	3_ground_torque_z	4_ground_force_vx	4_ground_force_vy	4_ground_force_vz	4_ground_force_px	4_ground_force_py	4_ground_force_pz	4_ground_torque_x	4_ground_torque_y	4_ground_torque_z
            1.553500	           -5.595632	          315.677605	           61.426170	            0.130716	            0.000000	            0.215772	           -0.107550	            6.067458	            1.180637	           22.179559	          410.734246	           44.702699	           -0.174785	            0.000000	            0.222527	           -0.056634	           -1.048774	           -0.114144	           15.650515	            1.249325	           -0.374380	            0.378509	            1.022848	            1.081748	           -0.080498	           -0.006426	            0.001926	          -10.740909	            0.866174	           -0.551783	           -0.420681	            1.022203	            1.081125	            0.033803	           -0.002726	            0.001737
            1.554000	           -5.567320	          315.466381	           61.331401	            0.130718	            0.000000	            0.215699	           -0.106924	            6.058733	            1.177909	           22.197906	          410.957913	           44.739444	           -0.174757	            0.000000	            0.222454	           -0.056014	           -1.037016	           -0.112896	           15.666004	            1.247603	           -0.372453	            0.378512	            1.022854	            1.081751	           -0.080847	           -0.006438	            0.001922	          -10.739360	            0.868264	           -0.550100	           -0.420679	            1.022202	            1.081124	            0.033903	           -0.002741	            0.001737
            1.554500	           -5.539383	          315.252078	           61.234643	            0.130721	            0.000000	            0.215623	           -0.106307	            6.050038	            1.175161	           22.218505	          411.175565	           44.772932	           -0.174729	            0.000000	            0.222379	           -0.055392	           -1.025087	           -0.111622	           15.683365	            1.244118	           -0.371735	            0.378514	            1.022860	            1.081754	           -0.081216	           -0.006443	            0.001925	          -10.738779	            0.870052	           -0.548498	           -0.420676	            1.022202	            1.081123	            0.033979	           -0.002753	            0.001736
            1.555000	           -5.511743	          315.035027	           61.136036	            0.130723	            0.000000	            0.215545	           -0.105698	            6.041391	            1.172399	           22.241217	          411.387198	           44.803231	           -0.174701	            0.000000	            0.222304	           -0.054767	           -1.013006	           -0.110324	           15.702489	            1.238893	           -0.372271	            0.378517	            1.022866	            1.081757	           -0.081605	           -0.006438	            0.001935	          -10.739170	            0.871512	           -0.547040	           -0.420674	            1.022201	            1.081122	            0.034029	           -0.002762	            0.001733
            1.555500	           -5.484323	          314.815605	           61.035724	            0.130726	            0.000000	            0.215465	           -0.105096	            6.032815	            1.169628	           22.265893	          411.592851	           44.830425	           -0.174672	            0.000000	            0.222226	           -0.054140	           -1.000794	           -0.109006	           15.723251	            1.231962	           -0.374250	            0.378520	            1.022874	            1.081759	           -0.082010	           -0.006426	            0.001952	          -10.740518	            0.872615	           -0.545748	           -0.420672	            1.022201	            1.081121	            0.034054	           -0.002767	            0.001730
            1.556000	           -5.457049	          314.594230	           60.933858	            0.130729	            0.000000	            0.215383	           -0.104500	            6.024329	            1.166854	           22.292378	          411.792606	           44.854614	           -0.174643	            0.000000	            0.222148	           -0.053511	           -0.988469	           -0.107669	           15.745520	            1.223377	           -0.377530	            0.378524	            1.022881	            1.081761	           -0.082429	           -0.006404	            0.001976	          -10.742786	            0.873334	           -0.544716	           -0.420671	            1.022201	            1.081121	            0.034052	           -0.002768	            0.001727
            1.556500	           -5.429846	          314.371362	           60.830596	            0.130731	            0.000000	            0.215299	           -0.103908	            6.015952	            1.164082	           22.320512	          411.986590	           44.875917	           -0.174614	            0.000000	            0.222068	           -0.052880	           -0.976051	           -0.106317	           15.769146	            1.213204	           -0.382116	            0.378527	            1.022888	            1.081762	           -0.082860	           -0.006375	            0.002008	          -10.745919	            0.873634	           -0.543998	           -0.420669	            1.022201	            1.081120	            0.034024	           -0.002766	            0.001722
            1.557000	           -5.402643	          314.147497	           60.726100	            0.130734	            0.000000	            0.215213	           -0.103319	            6.007706	            1.161316	           22.350127	          412.174969	           44.894469	           -0.174584	            0.000000	            0.221987	           -0.052249	           -0.963558	           -0.104952	           15.793969	            1.201521	           -0.388000	            0.378531	            1.022895	            1.081764	           -0.083299	           -0.006337	            0.002046	          -10.749843	            0.873483	           -0.543642	           -0.420667	            1.022201	            1.081119	            0.033968	           -0.002760	            0.001718
            1.557500	           -5.375369	          313.923162	           60.620536	            0.130737	            0.000000	            0.215126	           -0.102732	            5.999609	            1.158562	           22.381057	          412.357954	           44.910420	           -0.174554	            0.000000	            0.221905	           -0.051617	           -0.951008	           -0.103576	           15.819821	            1.188417	           -0.395162	            0.378534	            1.022902	            1.081766	           -0.083744	           -0.006291	            0.002092	          -10.754466	            0.872844	           -0.543692	           -0.420665	            1.022201	            1.081118	            0.033884	           -0.002750	            0.001713
            1.558000	           -5.347958	          313.698913	           60.514073	            0.130740	            0.000000	            0.215036	           -0.102147	            5.991680	            1.155825	           22.413133	          412.535795	           44.923938	           -0.174523	            0.000000	            0.221822	           -0.050984	           -0.938420	           -0.102191	           15.846524	            1.173998	           -0.403559	            0.378538	            1.022910	            1.081766	           -0.084189	           -0.006237	            0.002144	          -10.759677	            0.871679	           -0.544183	           -0.420664	            1.022201	            1.081117	            0.033772	           -0.002736	            0.001708
            1.558500	           -5.320346	          313.475328	           60.406881	            0.130742	            0.000000	            0.214945	           -0.101560	            5.983937	            1.153108	           22.446186	          412.708781	           44.935203	           -0.174492	            0.000000	            0.221737	           -0.050352	           -0.925809	           -0.100801	           15.873894	            1.158370	           -0.413162	            0.378542	            1.022918	            1.081767	           -0.084633	           -0.006176	            0.002203	          -10.765351	            0.869953	           -0.545148	           -0.420663	            1.022202	            1.081117	            0.033633	           -0.002718	            0.001703
            1.559000	           -5.292474	          313.253001	           60.299130	            0.130745	            0.000000	            0.214853	           -0.100972	            5.976398	            1.150417	           22.480052	          412.877237	           44.944410	           -0.174459	            0.000000	            0.221652	           -0.049721	           -0.913192	           -0.099407	           15.901744	            1.141653	           -0.423920	            0.378546	            1.022925	            1.081767	           -0.085071	           -0.006108	            0.002268	          -10.771345	            0.867626	           -0.546613	           -0.420662	            1.022202	            1.081116	            0.033465	           -0.002696	            0.001698
            1.559500	           -5.264284	          313.032542	           60.190990	            0.130747	            0.000000	            0.214760	           -0.100382	            5.969078	            1.147755	           22.514569	          413.041521	           44.951765	           -0.174427	            0.000000	            0.221565	           -0.049090	           -0.900583	           -0.098011	           15.929883	            1.123970	           -0.435774	            0.378550	            1.022933	            1.081768	           -0.085499	           -0.006033	            0.002339	          -10.777506	            0.864662	           -0.548594	           -0.420661	            1.022203	            1.081116	            0.033271	           -0.002669	            0.001694
            1.560000	           -5.235728	          312.814562	           60.082630	            0.130749	            0.000000	            0.214665	           -0.099789	            5.961992	            1.145126	           22.549584	          413.202025	           44.957485	           -0.174393	            0.000000	            0.221477	           -0.048461	           -0.887998	           -0.096617	           15.958118	            1.105452	           -0.448655	            0.378554	            1.022941	            1.081769	           -0.085913	           -0.005951	            0.002415	          -10.783666	            0.861023	           -0.551100	           -0.420660	            1.022203	            1.081116	            0.033049	           -0.002639	            0.001689
            1.560500	           -5.206757	          312.599678	           59.974214	            0.130752	            0.000000	            0.214570	           -0.099191	            5.955151	            1.142533	           22.584952	          413.359165	           44.961797	           -0.174359	            0.000000	            0.221389	           -0.047832	           -0.875449	           -0.095224	           15.986263	            1.086239	           -0.462324	            0.378558	            1.022949	            1.081768	           -0.086310	           -0.005865	            0.002496	          -10.789648	            0.856671	           -0.554147	           -0.420660	            1.022204	            1.081116	            0.032801	           -0.002604	            0.001685
